<?xml version="1.0" encoding="UTF-8"?>
<svg width="115px" height="27px" viewBox="0 0 115 27" version="1.1" xmlns="http://www.w3.org/2000/svg" xmlns:xlink="http://www.w3.org/1999/xlink">
    <!-- Generator: Sketch 60.1 (88133) - https://sketch.com -->
    <title>logo-line-color</title>
    <desc>Created with Sketch.</desc>
    <defs>
        <linearGradient x1="10.642537%" y1="10.7823457%" x2="96.4712916%" y2="100%" id="linearGradient-1">
            <stop stop-color="#40E0CF" offset="0%"></stop>
            <stop stop-color="#36CDCF" offset="100%"></stop>
        </linearGradient>
    </defs>
    <g id="logo" stroke="none" stroke-width="1" fill="none" fill-rule="evenodd">
        <g id="Artboard" transform="translate(-134.000000, -280.000000)">
            <g id="logo-line-color" transform="translate(134.000000, 280.000000)">
                <g id="Group-13" transform="translate(0.000000, 0.000000)">
                    <g id="Group" transform="translate(32.000000, 3.000000)" fill="#1F1E1F" fill-rule="nonzero">
                        <path d="M2.784,17.616 L2.784,12.048 C2.784,9.864 3.768,8.616 5.928,8.616 C6.216,8.616 6.528,8.64 6.84,8.688 L6.84,5.856 C6.72,5.832 6.432,5.784 6.096,5.784 C4.56,5.784 3.264,6.528 2.712,7.8 L2.712,5.928 L0,5.928 L0,17.616 L2.784,17.616 Z M9.536,3.624 C10.544,3.624 11.36,2.832 11.36,1.824 C11.36,0.816 10.544,0 9.536,0 C8.552,0 7.736,0.816 7.736,1.824 C7.736,2.832 8.552,3.624 9.536,3.624 Z M10.928,17.616 L10.928,5.928 L8.168,5.928 L8.168,17.616 L10.928,17.616 Z M16.312,17.616 L16.312,10.872 C16.312,9.336 17.152,8.112 18.736,8.112 C20.488,8.112 21.136,9.264 21.136,10.704 L21.136,17.616 L23.92,17.616 L23.92,10.224 C23.92,7.656 22.552,5.592 19.696,5.592 C18.4,5.592 17.008,6.144 16.24,7.488 L16.24,5.928 L13.528,5.928 L13.528,17.616 L16.312,17.616 Z M31.032,22.536 C35.424,22.536 37.032,19.632 37.032,16.512 L37.032,5.928 L34.344,5.928 L34.344,7.416 C33.84,6.456 32.712,5.712 30.888,5.712 C27.672,5.712 25.488,8.28 25.488,11.4 C25.488,14.688 27.768,17.088 30.888,17.088 C32.592,17.088 33.768,16.296 34.272,15.384 L34.272,16.608 C34.272,18.984 33.168,20.112 30.96,20.112 C29.352,20.112 28.224,19.032 28.032,17.592 L25.464,18.264 C25.776,20.616 27.936,22.536 31.032,22.536 Z M31.344,14.712 C29.52,14.712 28.296,13.44 28.296,11.4 C28.296,9.408 29.568,8.112 31.344,8.112 C33.072,8.112 34.344,9.408 34.344,11.4 C34.344,13.416 33.12,14.712 31.344,14.712 Z M44.576,17.976 C48.08,17.976 50.648,15.36 50.648,11.76 C50.648,8.184 48.08,5.568 44.576,5.568 C41.096,5.568 38.528,8.184 38.528,11.76 C38.528,15.36 41.096,17.976 44.576,17.976 Z M44.576,15.48 C42.872,15.48 41.312,14.184 41.312,11.76 C41.312,9.336 42.872,8.088 44.576,8.088 C46.304,8.088 47.84,9.336 47.84,11.76 C47.84,14.208 46.304,15.48 44.576,15.48 Z M57.952,17.616 L62.536,5.928 L59.608,5.928 L56.584,14.28 L53.488,5.928 L50.416,5.928 L55.168,17.616 L57.952,17.616 Z M68.28,17.976 C71.088,17.976 72.936,16.32 73.56,14.28 L71.208,13.536 C70.824,14.688 69.96,15.576 68.28,15.576 C66.552,15.576 65.16,14.304 65.088,12.528 L73.632,12.528 C73.656,12.48 73.704,12.096 73.704,11.64 C73.704,7.944 71.592,5.568 67.992,5.568 C65.04,5.568 62.304,8.016 62.304,11.712 C62.304,15.672 65.112,17.976 68.28,17.976 Z M70.896,10.488 L65.16,10.488 C65.256,9.24 66.264,7.896 68.016,7.896 C69.936,7.896 70.848,9.12 70.896,10.488 Z M78.152,17.616 L78.152,12.048 C78.152,9.864 79.136,8.616 81.296,8.616 C81.584,8.616 81.896,8.64 82.208,8.688 L82.208,5.856 C82.088,5.832 81.8,5.784 81.464,5.784 C79.928,5.784 78.632,6.528 78.08,7.8 L78.08,5.928 L75.368,5.928 L75.368,17.616 L78.152,17.616 Z" id="ringover"></path>
                    </g>
                    <g id="logo" transform="translate(0.000000, 0.000000)" fill="url(#linearGradient-1)">
                        <g id="Group-Copy-3">
                            <g id="Group-2" transform="translate(0.245620, 0.000000)">
                                <path d="M12.7487636,26.0357143 C6.44286601,26.0357143 1.49207336,21.8112333 0.373650926,15.6875264 C0.359732676,15.6113197 0.34019606,15.4963529 0.315041079,15.342626 L6.56344993,15.3427385 C6.5908412,15.4348227 6.61183136,15.5034988 6.62642038,15.5487668 C7.55282415,18.4232847 10.0690497,19.9096639 12.7487636,19.9096639 C15.432939,19.9096639 17.9530813,18.4494006 18.8757208,15.5535215 C18.8904769,15.5072066 18.9116851,15.4369081 18.9393453,15.342626 L25.1824861,15.342626 C25.1615897,15.4711433 25.1454487,15.5673025 25.1340631,15.6311037 C24.0358226,21.7852691 19.0740099,26.0357143 12.7487636,26.0357143 Z M12.7487636,0 C19.3444301,0 24.4575906,4.57963363 25.2535401,11.1938247 C25.264946,11.2886056 25.2800508,11.4317085 25.2988544,11.6231335 L19.142136,11.6231335 C19.1243944,11.5144466 19.1105316,11.4333869 19.1005476,11.3799545 C18.4481121,7.88825231 15.697413,6.12605042 12.7487636,6.12605042 C9.83383355,6.12605042 7.11235238,7.84817927 6.42018275,11.2608445 C6.40413025,11.3399896 6.38253305,11.4607526 6.35539115,11.6231335 L0.198672699,11.6231335 C0.225874504,11.3543914 0.2482484,11.153762 0.265794389,11.0212454 C1.12923201,4.50010485 6.21061717,0 12.7487636,0 Z" id="Shape"></path>
                            </g>
                        </g>
                    </g>
                </g>
            </g>
        </g>
    </g>
</svg>