<?xml version="1.0" encoding="UTF-8"?>
<svg width="79px" height="22px" viewBox="0 0 79 22" version="1.1" xmlns="http://www.w3.org/2000/svg" xmlns:xlink="http://www.w3.org/1999/xlink">
    <!-- Generator: Sketch 60.1 (88133) - https://sketch.com -->
    <title>word-black</title>
    <desc>Created with Sketch.</desc>
    <g id="logo" stroke="none" stroke-width="1" fill="none" fill-rule="evenodd">
        <g id="Artboard" transform="translate(-134.000000, -485.000000)" fill="#1F1E1F" fill-rule="nonzero">
            <g id="logo-square-color" transform="translate(134.000000, 434.000000)">
                <path d="M2.668,67.882 L2.668,62.546 C2.668,60.453 3.611,59.257 5.681,59.257 C5.957,59.257 6.256,59.28 6.555,59.326 L6.555,56.612 C6.44,56.589 6.164,56.543 5.842,56.543 C4.37,56.543 3.128,57.256 2.599,58.475 L2.599,56.681 L0,56.681 L0,67.882 L2.668,67.882 Z M9.13866667,54.473 C10.1046667,54.473 10.8866667,53.714 10.8866667,52.748 C10.8866667,51.782 10.1046667,51 9.13866667,51 C8.19566667,51 7.41366667,51.782 7.41366667,52.748 C7.41366667,53.714 8.19566667,54.473 9.13866667,54.473 Z M10.4726667,67.882 L10.4726667,56.681 L7.82766667,56.681 L7.82766667,67.882 L10.4726667,67.882 Z M15.6323333,67.882 L15.6323333,61.419 C15.6323333,59.947 16.4373333,58.774 17.9553333,58.774 C19.6343333,58.774 20.2553333,59.878 20.2553333,61.258 L20.2553333,67.882 L22.9233333,67.882 L22.9233333,60.798 C22.9233333,58.337 21.6123333,56.359 18.8753333,56.359 C17.6333333,56.359 16.2993333,56.888 15.5633333,58.176 L15.5633333,56.681 L12.9643333,56.681 L12.9643333,67.882 L15.6323333,67.882 Z M29.739,72.597 C33.948,72.597 35.489,69.814 35.489,66.824 L35.489,56.681 L32.913,56.681 L32.913,58.107 C32.43,57.187 31.349,56.474 29.601,56.474 C26.519,56.474 24.426,58.935 24.426,61.925 C24.426,65.076 26.611,67.376 29.601,67.376 C31.234,67.376 32.361,66.617 32.844,65.743 L32.844,66.916 C32.844,69.193 31.786,70.274 29.67,70.274 C28.129,70.274 27.048,69.239 26.864,67.859 L24.403,68.503 C24.702,70.757 26.772,72.597 29.739,72.597 Z M30.038,65.099 C28.29,65.099 27.117,63.88 27.117,61.925 C27.117,60.016 28.336,58.774 30.038,58.774 C31.694,58.774 32.913,60.016 32.913,61.925 C32.913,63.857 31.74,65.099 30.038,65.099 Z M42.7186667,68.227 C46.0766667,68.227 48.5376667,65.72 48.5376667,62.27 C48.5376667,58.843 46.0766667,56.336 42.7186667,56.336 C39.3836667,56.336 36.9226667,58.843 36.9226667,62.27 C36.9226667,65.72 39.3836667,68.227 42.7186667,68.227 Z M42.7186667,65.835 C41.0856667,65.835 39.5906667,64.593 39.5906667,62.27 C39.5906667,59.947 41.0856667,58.751 42.7186667,58.751 C44.3746667,58.751 45.8466667,59.947 45.8466667,62.27 C45.8466667,64.616 44.3746667,65.835 42.7186667,65.835 Z M55.5373333,67.882 L59.9303333,56.681 L57.1243333,56.681 L54.2263333,64.685 L51.2593333,56.681 L48.3153333,56.681 L52.8693333,67.882 L55.5373333,67.882 Z M65.435,68.227 C68.126,68.227 69.897,66.64 70.495,64.685 L68.241,63.972 C67.873,65.076 67.045,65.927 65.435,65.927 C63.779,65.927 62.445,64.708 62.376,63.006 L70.564,63.006 C70.587,62.96 70.633,62.592 70.633,62.155 C70.633,58.613 68.609,56.336 65.159,56.336 C62.33,56.336 59.708,58.682 59.708,62.224 C59.708,66.019 62.399,68.227 65.435,68.227 Z M67.942,61.051 L62.445,61.051 C62.537,59.855 63.503,58.567 65.182,58.567 C67.022,58.567 67.896,59.74 67.942,61.051 Z M74.8956667,67.882 L74.8956667,62.546 C74.8956667,60.453 75.8386667,59.257 77.9086667,59.257 C78.1846667,59.257 78.4836667,59.28 78.7826667,59.326 L78.7826667,56.612 C78.6676667,56.589 78.3916667,56.543 78.0696667,56.543 C76.5976667,56.543 75.3556667,57.256 74.8266667,58.475 L74.8266667,56.681 L72.2276667,56.681 L72.2276667,67.882 L74.8956667,67.882 Z" id="word-black"></path>
            </g>
        </g>
    </g>
</svg>